PathFileType	4	(x/y/z)	TRC_MarkerData\Calibration\Standing_Cal_SL_Passive0001.trc
DataRate	CameraRate	NumFrames	NumMarkers	Units	OrigDataRate	OrigDataStartFrame	OrigNumFrames
240	240	4	50	mm	240	1	849
Frame#	Time	R_AC			L_AC			HEAD			STERN			C7			L_IC			R_IC			L_ASIS			R_ASIS			L_GT			R_GT			L_PSIS			R_PSIS			SACRAL			L_LAT_KNEE			L_MED_KNEE			R_LAT_KNEE			R_MED_KNEE			L_LAT_ANK			L_MED_ANK			R_LAT_ANK			R_MED_ANK			L_THIGH_PROX_POST			L_THIGH_PROX_ANT			L_THIGH_DIST_ANT			L_THIGH_DIST_POST			R_THIGH_PROX_POST			R_THIGH_PROX_ANT			R_THIGH_DIST_ANT			R_THIGH_DIST_POST			L_SHANK_PROX_POST			L_SHANK_PROX_ANT			L_SHANK_DIST_ANT			L_SHANK_DIST_POST			R_SHANK_PROX_POST			R_SHANK_PROX_ANT			R_SHANK_DIST_ANT			R_SHANK_DIST_POST			L_HEEL_LAT			L_HEEL_SUP			L_HEEL_MED			R_HEEL_LAT			R_HEEL_SUP			R_HEEL_MED			L_1ST_MET			L_5TH_MET			L_TOE			R_1ST_MET			R_5TH_MET			R_TOE			
		X1	Y1	Z1	X2	Y2	Z2	X3	Y3	Z3	X4	Y4	Z4	X5	Y5	Z5	X6	Y6	Z6	X7	Y7	Z7	X8	Y8	Z8	X9	Y9	Z9	X10	Y10	Z10	X11	Y11	Z11	X12	Y12	Z12	X13	Y13	Z13	X14	Y14	Z14	X15	Y15	Z15	X16	Y16	Z16	X17	Y17	Z17	X18	Y18	Z18	X19	Y19	Z19	X20	Y20	Z20	X21	Y21	Z21	X22	Y22	Z22	X23	Y23	Z23	X24	Y24	Z24	X25	Y25	Z25	X26	Y26	Z26	X27	Y27	Z27	X28	Y28	Z28	X29	Y29	Z29	X30	Y30	Z30	X31	Y31	Z31	X32	Y32	Z32	X33	Y33	Z33	X34	Y34	Z34	X35	Y35	Z35	X36	Y36	Z36	X37	Y37	Z37	X38	Y38	Z38	X39	Y39	Z39	X40	Y40	Z40	X41	Y41	Z41	X42	Y42	Z42	X43	Y43	Z43	X44	Y44	Z44	X45	Y45	Z45	X46	Y46	Z46	X47	Y47	Z47	X48	Y48	Z48	X49	Y49	Z49	X50	Y50	Z50	

1	0	404.8	1557.2	451.61	422.22	1574.5	157.62	447.78	1817.5	318.38	507.52	1495.4	307.17	364.4	1575.4	306.07	472.96	1105.4	138.13	472.67	1118.3	459.36	529.61	1021.1	162.78	539.76	1026	434.15	445.57	935.91	103.53	455.48	953.1	491.72	351.31	1084.5	250.64	352.67	1090.5	343.84	336.39	1057.9	296.54	407.99	535.17	148.23	380.05	521.96	282.19	402.6	542.75	471.2	380.66	550.3	340.8	382.42	114.11	147.1	386.7	110.23	218.34	376.23	109.61	448.47	385.15	128.63	358.1	417.22	764.87	127.93	478.37	756.39	148.69	472.65	682.85	162.49	410.03	690.36	140.66	387.66	751.41	481.83	455.59	749.15	487.02	446.64	674.56	479.26	379.42	677.21	473.91	391.43	449.48	146.54	435.31	458.93	171.48	424.54	400.61	173.51	367.23	390.26	165.65	334.04	375.43	480.43	402.92	379.55	478.99	401.39	304.19	468.08	330.8	302.33	466.45	302.41	41.923	155.27	297.72	70.022	189.09	309.63	40.78	221.98	307.56	41.166	419.81	304.67	70.799	387.16	320.65	46.099	353.85	517.56	53.677	219.88	479.2	40.286	117.59	575.51	62.517	183.87	530.66	56.092	370.48	489.14	40.422	474.46	581	54.427	422.11
2	0.0041716	404.79	1557.2	451.65	422.13	1574.5	157.67	447.76	1817.5	318.45	507.5	1495.4	307.21	364.38	1575.4	306.11	472.95	1105.4	138.14	472.69	1118.3	459.38	529.62	1021.1	162.79	539.78	1026	434.16	445.57	935.92	103.55	455.5	953.1	491.74	351.32	1084.5	250.67	352.69	1090.5	343.87	336.4	1057.8	296.57	407.98	535.17	148.24	380.05	521.96	282.2	402.62	542.75	471.22	380.67	550.3	340.82	382.42	114.11	147.11	386.7	110.23	218.34	376.23	109.61	448.48	385.15	128.63	358.11	417.22	764.87	127.94	478.37	756.39	148.69	472.65	682.85	162.5	410.03	690.37	140.67	387.68	751.41	481.85	455.61	749.15	487.04	446.66	674.56	479.28	379.44	677.22	473.94	391.43	449.48	146.54	435.3	458.93	171.49	424.54	400.61	173.52	367.23	390.26	165.65	334.05	375.43	480.45	402.94	379.54	479	401.4	304.19	468.09	330.8	302.33	466.47	302.4	41.923	155.27	297.72	70.024	189.09	309.63	40.782	221.98	307.56	41.166	419.82	304.67	70.799	387.16	320.65	46.1	353.85	517.56	53.677	219.88	479.2	40.287	117.59	575.51	62.521	183.87	530.66	56.094	370.48	489.14	40.421	474.46	581	54.428	422.11
3	0.0083432	404.77	1557.2	451.69	422.05	1574.5	157.73	447.74	1817.5	318.52	507.47	1495.4	307.24	364.36	1575.4	306.16	472.95	1105.4	138.16	472.71	1118.3	459.39	529.63	1021.1	162.8	539.8	1026	434.18	445.57	935.92	103.56	455.53	953.1	491.75	351.34	1084.4	250.71	352.71	1090.4	343.9	336.42	1057.8	296.59	407.98	535.17	148.25	380.04	521.97	282.2	402.64	542.75	471.24	380.69	550.3	340.83	382.43	114.11	147.11	386.7	110.23	218.35	376.23	109.61	448.49	385.15	128.63	358.12	417.22	764.87	127.96	478.37	756.4	148.7	472.65	682.85	162.51	410.03	690.38	140.69	387.71	751.41	481.86	455.63	749.15	487.06	446.69	674.56	479.29	379.46	677.22	473.96	391.42	449.48	146.55	435.3	458.92	171.5	424.54	400.61	173.52	367.22	390.27	165.66	334.07	375.43	480.46	402.95	379.54	479.01	401.41	304.18	468.1	330.8	302.34	466.48	302.4	41.923	155.27	297.72	70.026	189.09	309.64	40.784	221.98	307.56	41.166	419.82	304.67	70.799	387.17	320.65	46.102	353.85	517.56	53.676	219.88	479.2	40.287	117.59	575.51	62.524	183.87	530.66	56.096	370.49	489.13	40.419	474.47	581	54.429	422.11
4	0.012515	404.76	1557.2	451.73	421.97	1574.5	157.78	447.72	1817.5	318.59	507.44	1495.4	307.28	364.34	1575.4	306.22	472.94	1105.4	138.18	472.72	1118.3	459.41	529.64	1021.2	162.81	539.83	1026	434.19	445.58	935.92	103.58	455.56	953.09	491.77	351.36	1084.4	250.75	352.74	1090.4	343.94	336.43	1057.8	296.62	407.98	535.17	148.26	380.03	521.97	282.21	402.67	542.74	471.25	380.7	550.3	340.85	382.43	114.11	147.12	386.7	110.23	218.35	376.23	109.61	448.49	385.15	128.63	358.13	417.22	764.87	127.98	478.38	756.4	148.71	472.65	682.85	162.52	410.04	690.38	140.7	387.73	751.4	481.88	455.65	749.15	487.08	446.71	674.56	479.31	379.48	677.22	473.98	391.42	449.48	146.55	435.3	458.92	171.51	424.53	400.61	173.53	367.22	390.27	165.66	334.08	375.43	480.48	402.96	379.53	479.02	401.41	304.17	468.11	330.8	302.35	466.5	302.4	41.923	155.27	297.72	70.028	189.1	309.64	40.786	221.98	307.56	41.166	419.82	304.67	70.8	387.17	320.65	46.103	353.85	517.56	53.675	219.88	479.2	40.288	117.58	575.51	62.527	183.87	530.66	56.097	370.49	489.13	40.417	474.47	581	54.429	422.11
